<?xml version="1.0" standalone="no"?>
<!DOCTYPE svg PUBLIC "-//W3C//DTD SVG 20010904//EN"
 "http://www.w3.org/TR/2001/REC-SVG-20010904/DTD/svg10.dtd">
<svg version="1.0" xmlns="http://www.w3.org/2000/svg"
 width="700.000000pt" height="700.000000pt" viewBox="0 0 700.000000 700.000000"
 preserveAspectRatio="xMidYMid meet">
<metadata>
Created by potrace 1.14, written by Peter Selinger 2001-2017
</metadata>
<g transform="translate(0.000000,700.000000) scale(0.100000,-0.100000)"
fill="#000000" stroke="none">
<path d="M3160 6573 c-209 -21 -736 -139 -1117 -249 -386 -111 -596 -223 -813
-431 -195 -186 -317 -358 -455 -638 -176 -358 -297 -744 -369 -1180 -42 -249
-48 -334 -53 -733 -12 -908 84 -1499 295 -1810 41 -59 82 -99 172 -165 68 -50
73 -67 77 -267 2 -96 6 -190 9 -209 9 -58 141 -179 263 -241 73 -36 221 -68
393 -84 338 -31 1101 -56 1897 -62 494 -3 620 -7 690 -20 349 -64 450 -70 906
-55 345 12 457 24 635 72 124 33 368 123 465 172 187 93 413 288 476 409 19
38 25 94 11 114 -15 23 -49 33 -79 25 -59 -17 -91 -42 -199 -152 -115 -118
-231 -211 -302 -243 -74 -34 -69 -1 18 106 33 40 57 74 55 76 -6 6 -75 -50
-160 -127 -95 -87 -210 -178 -235 -186 -58 -18 -33 20 108 167 59 62 118 127
130 145 52 74 3 88 -55 16 -56 -71 -167 -177 -253 -242 -89 -67 -215 -146
-248 -156 -22 -6 -23 -5 -11 16 7 13 95 108 196 211 100 103 183 192 183 198
0 16 -73 -38 -175 -130 -159 -144 -362 -264 -570 -337 -78 -27 -84 -28 -295
-27 -416 1 -762 71 -1057 213 -147 72 -232 126 -337 215 -44 37 -92 74 -108
82 -25 13 -28 13 -28 -1 0 -44 123 -183 269 -305 55 -46 99 -86 96 -88 -8 -8
-153 76 -258 150 -61 43 -117 78 -124 78 -28 0 -10 -27 70 -104 92 -89 124
-130 108 -140 -6 -4 -24 0 -41 9 -39 20 -406 34 -905 35 -673 1 -1070 31
-1124 85 -12 12 -8 33 27 147 47 150 61 214 44 204 -6 -3 -23 -39 -38 -79 -49
-129 -99 -217 -126 -217 -14 0 -9 27 26 138 47 146 69 254 110 549 40 280 41
296 24 291 -23 -8 -49 -109 -94 -372 -24 -144 -51 -286 -60 -316 -23 -81 -74
-200 -86 -200 -14 0 -5 42 43 201 46 154 68 274 52 290 -6 6 -19 -20 -38 -83
-47 -157 -86 -258 -97 -252 -17 11 6 160 66 437 39 174 82 438 107 647 31 252
33 694 5 875 -27 174 -63 259 -81 188 -3 -15 -10 -132 -14 -261 -5 -146 -13
-238 -19 -244 -12 -12 -38 38 -102 195 -65 159 -65 65 0 -228 47 -208 60 -307
39 -287 -7 7 -34 52 -59 100 -29 56 -52 88 -64 91 -17 3 -18 -1 -12 -40 4 -24
34 -122 67 -218 61 -178 67 -205 49 -216 -16 -10 -39 13 -71 74 -16 31 -27 47
-25 36 45 -181 48 -201 42 -320 -7 -168 -44 -363 -72 -386 -12 -10 -25 -2 -69
44 -102 106 -189 320 -255 635 -50 242 -61 391 -27 379 16 -5 62 -98 137 -277
112 -266 141 -318 126 -233 -14 76 -70 242 -146 433 -159 396 -164 418 -163
795 0 384 35 770 79 873 l16 37 35 -40 c31 -34 35 -37 29 -15 -32 120 -46 252
-30 294 10 26 44 20 44 -7 0 -31 31 -120 39 -112 3 4 6 93 6 198 l0 192 39
110 c139 393 301 692 473 875 113 121 280 250 323 250 19 0 10 -48 -25 -125
-43 -94 -43 -127 -1 -73 17 20 69 98 116 173 77 123 91 139 126 151 21 7 40
11 42 9 9 -8 -12 -48 -63 -119 -62 -86 -115 -176 -115 -195 0 -28 33 0 126
109 118 136 247 250 329 290 66 32 264 87 545 150 102 23 223 54 270 68 115
35 205 40 257 14 22 -12 45 -28 52 -36 23 -27 34 -17 12 10 -27 34 -28 74 -2
74 25 0 70 -53 116 -134 59 -105 80 -105 40 -1 -14 38 -23 70 -20 73 19 19
177 -105 209 -163 20 -38 21 -51 19 -285 -2 -230 -15 -470 -29 -525 -14 -56
-23 -19 -17 69 4 71 3 95 -7 101 -17 11 -40 -21 -40 -57 0 -17 -11 -39 -30
-58 -18 -19 -30 -41 -30 -58 0 -46 -11 -72 -31 -72 -25 0 -42 35 -83 181 -41
146 -140 439 -161 477 -14 27 -14 26 -15 -24 0 -60 28 -278 70 -544 34 -213
36 -248 15 -257 -22 -8 -26 -1 -40 59 l-12 53 -6 -41 c-9 -55 -24 -67 -62 -48
-44 21 -57 48 -71 147 -28 182 -126 416 -208 496 -25 25 -48 43 -51 40 -2 -3
7 -48 21 -100 40 -150 110 -654 102 -744 -2 -32 -7 -41 -25 -43 -26 -4 -31 19
-21 97 4 30 5 58 2 63 -19 30 -54 -36 -54 -102 0 -50 -25 -113 -42 -108 -7 3
-14 20 -16 39 -4 37 -19 62 -33 54 -16 -10 -39 42 -104 235 -68 201 -130 345
-158 368 -13 11 -17 10 -27 -9 -19 -34 -4 -152 51 -421 27 -131 51 -267 55
-302 6 -59 5 -64 -17 -80 -62 -43 -514 16 -578 75 -33 31 -29 93 8 130 40 39
72 37 121 -8 49 -43 63 -35 45 27 -8 25 -21 70 -30 100 -11 36 -16 91 -16 160
0 131 -10 153 -71 148 -55 -4 -76 -33 -87 -124 -5 -39 -16 -84 -25 -101 -43
-84 -171 -115 -311 -77 -98 27 -106 28 -103 14 4 -18 -40 -40 -79 -40 -45 0
-49 -15 -11 -43 76 -57 157 -81 322 -96 60 -5 114 -15 120 -21 6 -7 11 -47 11
-98 l0 -87 58 -11 c32 -7 61 -15 65 -18 3 -4 6 -93 7 -199 1 -181 2 -196 27
-264 55 -151 160 -323 373 -613 153 -208 256 -367 317 -486 64 -125 118 -271
118 -317 l-1 -32 -20 24 c-11 14 -49 82 -85 153 -101 198 -349 558 -385 558
-13 0 21 -60 101 -180 92 -138 158 -254 209 -363 94 -199 88 -221 -13 -53 -77
128 -145 213 -146 182 0 -10 33 -88 73 -175 89 -188 123 -277 141 -362 14 -68
11 -102 -8 -96 -6 2 -32 62 -58 133 -53 146 -98 244 -110 244 -13 0 -1 -56 58
-260 134 -470 134 -679 -1 -829 -44 -49 -49 -48 -145 44 -103 98 -139 114
-174 79 -27 -26 -18 -53 37 -112 29 -31 85 -95 124 -142 38 -47 77 -91 86 -98
25 -21 52 -11 55 23 5 40 48 99 150 208 125 133 194 244 240 387 33 101 40
145 57 336 13 145 20 189 39 229 58 122 249 292 413 366 136 62 432 119 621
119 88 0 212 -17 212 -29 0 -4 -42 -12 -92 -19 -107 -14 -426 -78 -460 -92
-40 -16 72 -11 266 10 191 21 322 26 296 10 -9 -5 -83 -25 -165 -45 -82 -20
-165 -46 -185 -56 l-35 -20 50 5 c134 15 295 26 445 31 l165 5 -127 -34 c-70
-19 -137 -40 -150 -48 l-23 -13 25 -3 c14 -2 72 1 130 8 166 18 457 28 576 19
246 -18 388 -83 584 -266 97 -90 157 -133 187 -133 14 0 38 13 54 29 61 62 30
131 -122 276 -91 86 -133 120 -262 214 -32 24 -57 45 -54 47 8 8 130 -15 195
-36 35 -11 111 -43 171 -70 168 -78 191 -66 51 24 -87 57 -114 84 -67 71 23
-7 114 -44 292 -119 61 -25 119 -46 130 -46 18 1 17 3 -7 25 -15 13 -70 49
-123 80 -52 30 -95 60 -95 65 0 29 137 -5 325 -80 69 -27 132 -50 140 -50 8 0
15 9 15 20 0 42 -184 135 -426 216 -259 86 -435 98 -665 45 -75 -17 -157 -31
-181 -31 -25 0 -98 16 -162 35 -190 55 -403 94 -636 115 -434 38 -836 -41
-1110 -218 -30 -20 -103 -85 -161 -146 l-107 -110 -22 44 c-12 24 -42 93 -67
154 -24 60 -62 144 -85 185 -51 92 -193 303 -323 481 -165 225 -241 359 -297
523 -54 157 -41 318 27 363 23 15 38 16 128 7 134 -14 202 -4 375 51 78 25
153 46 165 46 17 0 33 -15 57 -52 43 -65 111 -109 179 -116 108 -10 200 77
315 296 82 159 134 238 202 312 67 72 82 106 94 222 18 163 25 647 11 719 -23
115 -73 184 -196 271 -133 94 -252 127 -405 111z m170 -1540 c0 -47 -114 -241
-166 -282 -47 -37 -94 -23 -94 29 0 36 -27 70 -55 70 -35 0 -42 20 -15 42 39
31 150 91 235 125 93 38 95 38 95 16z"/>
<path d="M3375 2358 c23 -227 79 -357 214 -501 159 -170 384 -292 675 -367
264 -68 455 -84 886 -77 414 7 632 37 701 94 37 32 37 52 -4 91 -40 39 -79 41
-218 13 -154 -32 -270 -42 -535 -48 -277 -6 -508 6 -693 38 -255 43 -316 79
-489 284 -124 148 -182 204 -182 177 0 -4 29 -57 65 -117 36 -60 65 -117 65
-127 0 -30 -25 -20 -69 27 -74 81 -150 215 -190 338 -30 89 -38 88 -56 -3 -15
-72 -19 -66 -100 113 -31 70 -61 127 -67 127 -5 0 -6 -26 -3 -62z"/>
</g>
</svg>
